<svg xmlns="http://www.w3.org/2000/svg" height="420" width="420"><line x1="0" y1="210" x2="420" y2="210" style="stroke:rgb(0,0,0);stroke-width:2"/><line x1="210" y1="0" x2="210" y2="420" style="stroke:rgb(0,0,0);stroke-width:2"/><circle cx="293" cy="390" r="3" fill="red"/><circle cx="289" cy="381" r="3" fill="red"/><circle cx="285" cy="372" r="3" fill="red"/><circle cx="281" cy="363" r="3" fill="red"/><circle cx="277" cy="354" r="3" fill="red"/><circle cx="273" cy="345" r="3" fill="red"/><circle cx="269" cy="336" r="3" fill="red"/><circle cx="265" cy="327" r="3" fill="red"/><circle cx="261" cy="318" r="3" fill="red"/><circle cx="257" cy="309" r="3" fill="red"/><circle cx="253" cy="300" r="3" fill="red"/><circle cx="249" cy="291" r="3" fill="red"/><circle cx="245" cy="282" r="3" fill="red"/><circle cx="241" cy="273" r="3" fill="red"/><circle cx="237" cy="264" r="3" fill="red"/><circle cx="233" cy="255" r="3" fill="red"/><circle cx="229" cy="246" r="3" fill="red"/><circle cx="225" cy="237" r="3" fill="red"/><circle cx="221" cy="228" r="3" fill="red"/><circle cx="217" cy="219" r="3" fill="red"/><circle cx="213" cy="210" r="3" fill="red"/><circle cx="209" cy="201" r="3" fill="red"/><circle cx="205" cy="192" r="3" fill="red"/><circle cx="201" cy="183" r="3" fill="red"/><circle cx="197" cy="174" r="3" fill="red"/><circle cx="193" cy="165" r="3" fill="red"/><circle cx="189" cy="156" r="3" fill="red"/><circle cx="185" cy="147" r="3" fill="red"/><circle cx="181" cy="138" r="3" fill="red"/><circle cx="177" cy="129" r="3" fill="red"/><circle cx="173" cy="120" r="3" fill="red"/><circle cx="169" cy="111" r="3" fill="red"/><circle cx="165" cy="102" r="3" fill="red"/><circle cx="161" cy="93" r="3" fill="red"/><circle cx="157" cy="84" r="3" fill="red"/><circle cx="153" cy="75" r="3" fill="red"/><circle cx="149" cy="66" r="3" fill="red"/><circle cx="145" cy="57" r="3" fill="red"/><circle cx="141" cy="48" r="3" fill="red"/><circle cx="137" cy="39" r="3" fill="red"/></svg>